HIERARCHY
ROOT root
{
	OFFSET 0.000000 0.000000 0.000000
	CHANNELS 6 Xposition Yposition Zposition Zrotation Yrotation Xrotation
	JOINT lhip
	{
		OFFSET 0.058581 -0.082280 -0.017664
		CHANNELS 3 Zrotation Yrotation Xrotation
		JOINT lknee
		{
			OFFSET 0.043451 -0.386469 0.008037
			CHANNELS 3 Zrotation Yrotation Xrotation
			JOINT lankle
			{
				OFFSET -0.014790 -0.426874 -0.037428
				CHANNELS 3 Zrotation Yrotation Xrotation
				JOINT ltoe
				{
					OFFSET 0.041054 -0.060286 0.122042
					CHANNELS 3 Zrotation Yrotation Xrotation
					End Site
					{
						OFFSET 0.000000 0.000000 0.000000
					}
				}
			}
		}
	}
	JOINT rhip
	{
		OFFSET -0.060310 -0.090513 -0.013543
		CHANNELS 3 Zrotation Yrotation Xrotation
		JOINT rknee
		{
			OFFSET -0.043257 -0.383688 -0.004843
			CHANNELS 3 Zrotation Yrotation Xrotation
			JOINT rankle
			{
				OFFSET 0.019056 -0.420046 -0.034562
				CHANNELS 3 Zrotation Yrotation Xrotation
				JOINT rtoe
				{
					OFFSET -0.034840 -0.062106 0.130323
					CHANNELS 3 Zrotation Yrotation Xrotation
					End Site
					{
						OFFSET 0.000000 0.000000 0.000000
					}
				}
			}
		}
	}
	JOINT lowerback
	{
		OFFSET 0.004439 0.124404 -0.038385
		CHANNELS 3 Zrotation Yrotation Xrotation
		JOINT upperback
		{
			OFFSET 0.004488 0.137956 0.026820
			CHANNELS 3 Zrotation Yrotation Xrotation
			JOINT chest
			{
				OFFSET -0.002265 0.056032 0.002855
				CHANNELS 3 Zrotation Yrotation Xrotation
				JOINT lowerneck
				{
					OFFSET -0.013390 0.211636 -0.033468
					CHANNELS 3 Zrotation Yrotation Xrotation
					JOINT upperneck
					{
						OFFSET 0.010113 0.088937 0.050410
						CHANNELS 3 Zrotation Yrotation Xrotation
						End Site
						{
							OFFSET 0.000000 0.000000 0.000000
						}
					}
				}
				JOINT lclavicle
				{
					OFFSET 0.071702 0.114000 -0.018898
					CHANNELS 3 Zrotation Yrotation Xrotation
					JOINT lshoulder
					{
						OFFSET 0.122921 0.045205 -0.019046
						CHANNELS 3 Zrotation Yrotation Xrotation
						JOINT lelbow
						{
							OFFSET 0.255332 -0.015649 -0.022946
							CHANNELS 3 Zrotation Yrotation Xrotation
							JOINT lwrist
							{
								OFFSET 0.265709 0.012698 -0.007375
								CHANNELS 3 Zrotation Yrotation Xrotation
								End Site
								{
									OFFSET 0.000000 0.000000 0.000000
								}
							}
						}
					}
				}
				JOINT rclavicle
				{
					OFFSET -0.082954 0.112472 -0.023707
					CHANNELS 3 Zrotation Yrotation Xrotation
					JOINT rshoulder
					{
						OFFSET -0.113228 0.046853 -0.008472
						CHANNELS 3 Zrotation Yrotation Xrotation
						JOINT relbow
						{
							OFFSET -0.260127 -0.014369 -0.031269
							CHANNELS 3 Zrotation Yrotation Xrotation
							JOINT rwrist
							{
								OFFSET -0.269108 0.006794 -0.006027
								CHANNELS 3 Zrotation Yrotation Xrotation
								End Site
								{
									OFFSET 0.000000 0.000000 0.000000
								}
							}
						}
					}
				}
			}
		}
	}
}
MOTION
Frames: 16
Frame Time: 0.033333
0.351495 0.180141 0.997351 84.477696 0.819388 93.807825 7.052107 5.646652 1.590191 -3.432647 5.682161 -4.941318 -2.450131 6.603161 -2.280540 0.000000 -0.000000 0.000000 -6.260414 -3.346083 -6.058884 0.295234 -3.390459 4.675681 7.990018 0.720089 -3.967919 0.000000 -0.000000 0.000000 -3.887879 2.082977 -1.713352 -1.742023 -1.168775 13.837162 -0.632253 3.885612 0.134551 2.934022 -0.648721 12.342309 8.942344 6.521530 -23.375731 -11.744284 -4.786593 -13.325500 -54.299921 -13.092885 23.146268 155.715234 -74.908014 -134.707271 -0.878128 -23.045477 -10.974407 -3.444769 8.303293 -8.173482 14.334007 24.885405 -10.499285 -142.238893 61.186272 -141.314993 5.480461 16.188523 -22.982079 
0.351433 0.180296 0.997290 84.519927 0.814419 93.807009 7.041756 5.641146 1.555467 -3.434585 5.627639 -4.896521 -2.408431 6.607910 -2.287930 0.000000 -0.000000 0.000000 -6.281605 -3.363556 -6.065957 0.311525 -3.378083 4.709743 7.979008 0.701364 -3.999110 0.000000 -0.000000 0.000000 -3.920120 2.114654 -1.766535 -1.649473 -1.180519 13.842357 -0.602249 3.918474 0.063137 2.943728 -0.696788 12.211572 8.833213 6.487902 -23.057170 -11.837583 -4.752352 -13.314060 -54.284992 -13.123105 23.155740 156.029288 -74.914579 -134.981176 -0.772547 -22.956036 -10.947298 -3.179896 8.295694 -8.132729 14.263661 24.856346 -10.447641 -142.878878 61.323417 -141.650659 4.598021 16.211866 -21.889954 
0.351472 0.180473 0.997278 84.567846 0.788003 93.774887 7.014218 5.662838 1.578254 -3.444695 5.596209 -4.886597 -2.422687 6.577122 -2.312498 0.000000 -0.000000 0.000000 -6.330277 -3.401243 -6.031107 0.324074 -3.408247 4.729224 7.976082 0.702090 -4.001896 0.000000 -0.000000 0.000000 -3.955620 2.133114 -1.875366 -1.557979 -1.218977 13.988527 -0.605933 3.944026 -0.071296 2.876751 -0.733538 12.144618 8.785061 6.419873 -22.767654 -11.901191 -4.809751 -13.182321 -54.249680 -13.112982 23.042568 156.061963 -74.894834 -134.891987 -0.571963 -22.859126 -10.905507 -2.848834 8.377272 -7.985433 14.073428 24.855373 -10.577229 -143.549697 61.466341 -141.755140 3.532618 16.220217 -19.638676 
0.351467 0.180589 0.997283 84.616523 0.776250 93.741040 7.001846 5.665168 1.598793 -3.439974 5.545856 -4.876359 -2.416777 6.588588 -2.316771 0.000000 -0.000000 0.000000 -6.351051 -3.413349 -5.980669 0.321091 -3.414338 4.723003 7.975989 0.678089 -4.017317 0.000000 -0.000000 0.000000 -3.978485 2.113098 -1.936774 -1.504399 -1.254272 13.999718 -0.587574 3.971248 -0.084547 2.886265 -0.636120 12.096660 8.808725 6.465231 -22.570535 -11.971302 -4.792872 -13.102744 -54.176663 -13.113374 23.000688 156.051535 -74.933123 -134.854967 -0.259018 -22.819010 -10.861544 -2.640774 8.381678 -7.915640 14.206853 24.860023 -10.418761 -143.966551 61.607326 -142.000682 3.032164 16.189277 -19.269557 
0.351477 0.180669 0.997213 84.632051 0.770410 93.720731 6.999367 5.679578 1.619292 -3.448400 5.524894 -4.871498 -2.400498 6.592451 -2.356655 0.000000 -0.000000 0.000000 -6.373478 -3.419176 -5.971716 0.329047 -3.431859 4.757758 8.010909 0.718025 -4.032778 0.000000 -0.000000 0.000000 -4.034595 2.110702 -2.087612 -1.405494 -1.271908 14.129311 -0.565804 4.014409 -0.158198 2.864265 -0.583833 12.131238 8.829119 6.387406 -22.414509 -12.015496 -4.729759 -13.041531 -54.210220 -13.174568 22.962591 156.146370 -74.952898 -134.941042 -0.233070 -22.786052 -10.766381 -2.368201 8.409468 -7.801264 14.187804 24.876974 -10.376495 -144.334515 61.804350 -142.193317 2.362849 16.260989 -18.532256 
0.351566 0.180700 0.997127 84.653660 0.741919 93.735479 6.968534 5.667133 1.609145 -3.456936 5.557452 -4.888322 -2.391053 6.554837 -2.361682 0.000000 -0.000000 0.000000 -6.419537 -3.440740 -5.981528 0.341105 -3.496353 4.773751 8.014802 0.753849 -4.058526 0.000000 -0.000000 0.000000 -4.078954 2.135005 -2.233681 -1.334276 -1.264480 14.188408 -0.582216 4.050490 -0.204510 2.779203 -0.543181 12.194173 8.975455 6.332093 -22.269080 -12.024119 -4.632662 -13.050306 -54.308003 -13.259038 23.049575 156.080496 -75.033517 -134.931463 -0.210232 -22.744215 -10.702429 -2.037775 8.300214 -7.774771 14.248656 24.907348 -10.262273 -144.869290 62.017579 -142.420265 1.773918 16.384962 -17.207174 
0.351650 0.180776 0.997056 84.692281 0.718032 93.706190 6.956251 5.657000 1.621377 -3.473640 5.518659 -4.852747 -2.404520 6.567316 -2.365066 0.000000 -0.000000 0.000000 -6.452401 -3.459564 -5.935263 0.350599 -3.497735 4.774927 7.989844 0.714759 -4.082974 0.000000 -0.000000 0.000000 -4.107843 2.133014 -2.341969 -1.262696 -1.288446 14.264408 -0.575998 4.055329 -0.305863 2.827704 -0.534685 12.099626 8.816927 6.285676 -21.740846 -12.097696 -4.489275 -12.985733 -54.318474 -13.353209 23.068653 156.205860 -75.164140 -135.139228 -0.103126 -22.738883 -10.765386 -1.824672 8.227946 -7.691468 14.480886 24.993501 -9.967659 -145.206529 62.264129 -142.839715 1.303178 16.398709 -17.105079 
0.351695 0.180864 0.997005 84.696238 0.707655 93.689905 6.938471 5.677729 1.631130 -3.470683 5.455698 -4.837019 -2.363078 6.596381 -2.375542 0.000000 -0.000000 0.000000 -6.475956 -3.465192 -5.908947 0.361252 -3.468917 4.759681 8.014985 0.709099 -4.080466 0.000000 -0.000000 0.000000 -4.121677 2.141000 -2.534292 -1.193342 -1.327266 14.366341 -0.586118 4.091315 -0.451423 2.812536 -0.499584 12.221757 8.741471 6.210619 -21.069389 -12.238264 -4.494467 -12.771023 -54.221230 -13.421240 22.964195 156.160907 -75.212047 -135.096095 0.035103 -22.730152 -10.815429 -1.486787 8.319139 -7.434004 14.673265 25.016402 -9.762558 -145.641512 62.481045 -143.144161 0.672145 16.407170 -16.753841 
0.351805 0.180918 0.996902 84.742166 0.678681 93.646107 6.918396 5.666555 1.678709 -3.486697 5.352738 -4.836149 -2.300086 6.644219 -2.404984 0.000000 -0.000000 0.000000 -6.516257 -3.493720 -5.837135 0.369249 -3.434491 4.744789 8.000227 0.660386 -4.114898 0.000000 -0.000000 0.000000 -4.216092 2.159742 -2.816565 -1.067994 -1.393666 14.578272 -0.583895 4.113669 -0.679758 2.846124 -0.477152 12.343045 8.667049 6.145889 -19.565928 -12.403881 -4.529099 -12.401850 -54.114261 -13.581322 22.829405 155.957627 -75.290579 -134.978317 0.087787 -22.755232 -10.945965 -1.014066 8.445562 -6.930764 14.797935 25.058316 -9.590876 -146.106249 62.704625 -143.559450 0.216688 16.518352 -16.303687 
0.351945 0.180905 0.996779 84.810818 0.660221 93.617270 6.921871 5.649523 1.704534 -3.512068 5.234189 -4.836088 -2.172893 6.722417 -2.384407 0.000000 -0.000000 0.000000 -6.551608 -3.492881 -5.759924 0.413579 -3.399127 4.713139 7.968537 0.550592 -4.156980 0.000000 -0.000000 0.000000 -4.252225 2.187628 -3.042851 -0.941219 -1.448577 14.656282 -0.623945 4.067962 -1.054620 2.948066 -0.400470 12.464040 8.527596 6.067896 -17.252515 -12.633625 -4.532588 -11.798232 -53.978308 -13.778110 22.706893 155.582797 -75.424831 -134.759326 0.173216 -22.656796 -11.151581 -0.458528 8.577496 -6.257691 15.263336 25.053918 -8.968978 -146.986598 62.854370 -144.658616 0.127155 16.351777 -16.649680 
0.352165 0.180904 0.996181 84.872224 0.650039 93.607475 6.978115 5.668620 1.635376 -3.558849 5.085237 -4.782574 -2.086317 6.799591 -2.350203 0.000000 -0.000000 0.000000 -6.578449 -3.500940 -5.727599 0.454987 -3.358221 4.674757 7.934315 0.416490 -4.175423 0.000000 -0.000000 0.000000 -4.337923 2.177815 -3.370335 -0.760457 -1.527623 14.907026 -0.680036 4.069092 -1.651597 2.979185 -0.453436 12.505598 8.378590 5.899979 -14.265541 -12.991041 -4.508817 -11.030476 -53.825786 -14.146577 22.544108 154.957278 -75.713302 -134.339234 0.434763 -22.417441 -11.355013 0.422328 8.659637 -5.292926 15.623313 25.381012 -8.355580 -148.000919 63.455563 -145.946823 -0.613336 16.190205 -16.819163 
0.352541 0.180674 0.995777 84.919920 0.670682 93.578564 7.076391 5.698861 1.612735 -3.602586 4.877432 -4.733849 -1.971725 6.962293 -2.335605 0.000000 -0.000000 0.000000 -6.554801 -3.477772 -5.646061 0.500512 -3.274186 4.610102 7.903350 0.242800 -4.201461 0.000000 -0.000000 0.000000 -4.428282 2.107210 -3.690926 -0.595550 -1.625326 14.993014 -0.730111 4.177352 -2.174715 2.932953 -0.477193 12.812945 8.262217 5.920012 -11.544425 -13.402026 -4.498583 -10.350604 -53.647709 -14.427535 22.528544 153.844868 -76.132886 -133.512772 0.884741 -22.067988 -11.886547 1.230679 8.782958 -4.559784 16.825477 25.580627 -7.005531 -150.027201 64.421578 -148.095280 -1.462548 15.498871 -17.320369 
0.353059 0.180393 0.995488 84.931842 0.649809 93.529053 7.139245 5.722205 1.611115 -3.656728 4.748903 -4.674605 -1.889298 7.059037 -2.319966 0.000000 -0.000000 0.000000 -6.598641 -3.465625 -5.531386 0.560190 -3.300635 4.547204 7.913027 0.225199 -4.157263 0.000000 -0.000000 0.000000 -4.641824 2.124551 -4.170638 -0.370245 -1.722135 15.276204 -0.721596 4.216205 -2.699272 2.813000 -0.382584 13.089251 8.221346 5.768160 -9.032872 -13.762726 -4.409736 -9.710148 -53.692059 -14.771320 22.546055 152.171820 -76.760702 -132.560337 0.893642 -21.881572 -12.215466 2.183424 8.983621 -3.647776 17.905189 25.419744 -5.571618 -152.751186 65.532565 -151.726682 -1.266664 15.825188 -17.885625 
0.353471 0.180123 0.995084 84.992364 0.656215 93.480023 7.204760 5.701563 1.620202 -3.659186 4.604206 -4.608310 -1.896256 7.154192 -2.376776 0.000000 -0.000000 0.000000 -6.634698 -3.507064 -5.412470 0.664506 -3.289470 4.519382 7.884624 0.170074 -4.117317 0.000000 -0.000000 0.000000 -4.858196 2.204395 -4.695056 -0.073354 -1.842783 15.643286 -0.700030 4.207957 -3.144147 2.672592 -0.335072 13.056570 8.053016 5.387074 -6.448657 -14.045307 -4.370301 -9.100760 -53.800091 -15.207393 22.611700 150.650570 -77.394840 -131.756526 0.959865 -21.484520 -12.623219 3.373912 9.313137 -2.735482 18.405519 25.224772 -4.254670 -155.715086 66.797055 -155.805935 -1.358769 15.918938 -17.736855 
0.353768 0.179829 0.994937 85.060209 0.699634 93.384139 7.305176 5.725791 1.744713 -3.691370 4.475886 -4.621825 -1.786807 7.192210 -2.373983 0.000000 -0.000000 0.000000 -6.589087 -3.466649 -5.258860 0.702854 -3.303342 4.512574 7.806885 0.076101 -4.201692 0.000000 -0.000000 0.000000 -4.977096 2.250263 -4.946273 0.166823 -1.844178 15.725247 -0.700028 4.143438 -3.484909 2.820715 -0.178698 13.084824 7.590260 4.978333 -4.543808 -14.276158 -4.338471 -8.607623 -54.013838 -15.471972 22.734920 148.345400 -77.974427 -129.562611 0.797945 -21.503365 -12.675263 4.310317 9.574767 -2.132634 20.370447 25.150323 -2.257086 -157.438104 67.941837 -157.156997 -1.628783 15.810545 -18.289023 
0.353830 0.179651 0.994859 85.123398 0.693346 93.448718 7.320968 5.755240 1.646445 -3.695546 4.342420 -4.591998 -1.715659 7.264448 -2.392091 0.000000 -0.000000 0.000000 -6.577975 -3.468229 -5.296302 0.722443 -3.209482 4.486501 7.720821 -0.084124 -4.222971 0.000000 -0.000000 0.000000 -4.983099 2.440821 -4.996495 0.371817 -1.753371 15.727495 -0.759750 4.018647 -4.207630 2.731293 -0.291995 13.102993 7.160833 4.559542 -2.837100 -14.785236 -4.229025 -8.225180 -53.852832 -15.650930 22.994338 147.563910 -78.516424 -129.198985 0.939566 -21.378514 -12.369985 5.576651 9.702231 -1.596495 20.908105 25.085342 -0.492900 -158.482170 69.116655 -157.993995 -2.802842 15.334169 -19.160398 
